<svg xmlns="http://www.w3.org/2000/svg" xmlns:xlink="http://www.w3.org/1999/xlink" xml:space="preserve" width="16.5354in" height="4.33071in" style="shape-rendering:geometricPrecision; text-rendering:geometricPrecision; image-rendering:optimizeQuality; fill-rule:evenodd; clip-rule:evenodd" viewBox="0 0 16535 4331"> <defs>  <style type="text/css">   <![CDATA[    .fil0 {fill:#213F9A}   ]]>  </style> </defs> <g id="Layer_x0020_1">  <metadata id="CorelCorpID_0Corel-Layer"></metadata>  <g id="_2486140893616">   <path class="fil0" d="M9935 929c47,77 -11,345 -34,437 -48,189 -97,425 -150,610l-153 620c-36,125 -67,287 -91,417 -25,135 -64,278 -83,413 -20,139 -61,288 -82,427 -10,72 -21,149 -38,219 -9,33 -9,67 -15,101 -5,33 -27,75 -10,106 15,16 787,7 913,7 71,0 248,8 306,-6 70,-365 116,-758 165,-1128 51,-385 104,-768 152,-1153 37,-293 111,-932 97,-1202 -18,-337 -121,-808 -566,-721 -278,54 -551,369 -731,575 -624,715 -1135,1481 -1744,2184 -377,437 -953,1011 -1557,1061 -330,28 -692,-140 -914,-382 -234,-257 -341,-598 -371,-939 -57,-641 220,-1434 764,-1812 278,-194 697,-313 1031,-228 296,77 579,306 801,510 60,-43 104,-78 158,-128 41,-37 137,-87 150,-139 14,-59 -70,-121 -108,-157 -53,-51 -93,-93 -152,-139 -237,-189 -491,-311 -787,-377 -589,-131 -1359,40 -1859,377 -488,329 -795,851 -903,1425 -117,622 -2,1324 454,1792 218,223 398,360 693,472 350,132 656,134 1022,88 625,-78 1112,-334 1565,-763 563,-533 1346,-1573 1808,-2266 39,-57 82,-113 118,-170 49,-77 64,-98 151,-131z"></path>   <path class="fil0" d="M11638 77c-58,217 -97,457 -143,678 -91,435 -183,954 -254,1394 -87,539 -302,1697 180,2048 369,268 832,-131 1101,-375 389,-355 839,-882 1167,-1308 120,-155 237,-316 357,-470 239,-306 465,-642 687,-961 119,-170 596,-861 649,-1006 -139,0 -278,0 -417,0 -212,0 -154,-13 -271,152 -86,122 -269,388 -350,489 -120,152 -234,331 -350,489 -119,161 -233,327 -353,486l-533 724c-57,78 -120,167 -180,242 -157,197 -389,523 -579,683 -65,55 -156,178 -245,166 -42,-96 36,-471 65,-585 43,-178 73,-365 116,-544 29,-119 106,-439 124,-544 15,-93 70,-285 90,-400 9,-47 25,-92 34,-138 36,-184 88,-365 127,-547 12,-57 160,-666 149,-677 -6,-7 -140,-2 -160,-2l-1011 6z"></path>   <path class="fil0" d="M340 3054c-19,6 -292,215 -317,241 21,87 287,347 361,413 140,125 298,230 466,313 308,152 562,240 907,263 654,44 1625,-181 1972,-757 126,-209 151,-398 136,-640 -32,-524 -691,-906 -1099,-1236 -147,-119 -290,-223 -416,-368 -129,-148 -230,-379 -100,-558 107,-149 339,-238 514,-271 193,-36 459,33 640,107 313,128 456,273 496,288l157 -136c39,-36 132,-111 155,-146 -215,-282 -711,-496 -1057,-523 -576,-46 -1478,-9 -1918,428 -164,163 -228,337 -224,567 7,376 346,739 619,968 148,124 294,231 458,333 317,199 756,451 686,876 -36,214 -157,350 -330,468 -181,122 -371,175 -585,205 -207,29 -476,-24 -670,-99 -183,-71 -344,-171 -493,-298 -188,-159 -230,-257 -358,-438z"></path>   <path class="fil0" d="M16478 77c-182,0 -431,5 -606,0 -27,-1 -31,-5 -55,-6l-307 0c-47,182 -96,385 -134,569 -38,190 -91,383 -133,573 -41,190 -88,388 -134,577 -46,191 -86,386 -134,576 -95,378 -176,762 -267,1142 -45,189 -86,379 -133,567 -12,47 -26,100 -37,147 -16,70 31,69 87,66l719 -3c208,4 146,14 196,-159 52,-182 90,-389 135,-576 93,-382 185,-774 269,-1158 85,-384 188,-769 269,-1153 41,-192 93,-384 134,-576 20,-96 44,-194 68,-288 22,-92 53,-206 63,-298z"></path>   <path class="fil0" d="M7923 4282c27,8 1019,9 1052,0 7,-9 138,-633 147,-693l109 -515c7,-40 35,-150 25,-181 -28,0 -605,616 -674,684l-335 351c-77,84 -173,174 -255,259 -22,23 -77,66 -69,95z"></path>  </g> </g></svg>